<?xml version="1.0" standalone="no"?><!DOCTYPE svg PUBLIC "-//W3C//DTD SVG 1.1//EN" "http://www.w3.org/Graphics/SVG/1.1/DTD/svg11.dtd"><svg t="1752566792492" class="icon" viewBox="0 0 1024 1024" version="1.1" xmlns="http://www.w3.org/2000/svg" p-id="100832" xmlns:xlink="http://www.w3.org/1999/xlink" width="128" height="128"><path d="M512 38.521905c269.312 0 487.619048 218.307048 487.619048 487.619047s-218.307048 487.619048-487.619048 487.619048-487.619048-218.307048-487.619048-487.619048 218.307048-487.619048 487.619048-487.619047z m230.497524 443.635809H281.502476a32.572952 32.572952 0 0 0-14.433524 3.31581 36.230095 36.230095 0 0 0-12.190476 9.557333 42.959238 42.959238 0 0 0-8.192 14.238476 49.298286 49.298286 0 0 0-2.145524 25.356191 49.298286 49.298286 0 0 0 5.607619 15.798857 42.959238 42.959238 0 0 0 10.435048 12.092952 36.230095 36.230095 0 0 0 13.604571 6.582857c2.438095 0.536381 4.87619 0.828952 7.314286 0.828953h460.995048a32.52419 32.52419 0 0 0 14.433524-3.364572 36.230095 36.230095 0 0 0 12.190476-9.508571 43.105524 43.105524 0 0 0 8.192-14.238476 49.249524 49.249524 0 0 0 2.145524-25.356191 49.249524 49.249524 0 0 0-5.607619-15.798857 43.105524 43.105524 0 0 0-10.435048-12.092952 36.230095 36.230095 0 0 0-13.604571-6.582857 32.52419 32.52419 0 0 0-7.314286-0.828953z" fill="#F3A811" p-id="100833"></path></svg>