<?xml version="1.0" standalone="no"?><!DOCTYPE svg PUBLIC "-//W3C//DTD SVG 1.1//EN" "http://www.w3.org/Graphics/SVG/1.1/DTD/svg11.dtd"><svg t="1752566887518" class="icon" viewBox="0 0 1024 1024" version="1.1" xmlns="http://www.w3.org/2000/svg" p-id="103760" xmlns:xlink="http://www.w3.org/1999/xlink" width="128" height="128"><path d="M512 512m-512 0a512 512 0 1 0 1024 0 512 512 0 1 0-1024 0Z" fill="#4A90E2" p-id="103761"></path><path d="M494.668 558.46c-5.494 0-13.642-0.721-21.257-4.155L204.325 432.956c-13.944-6.288-15.449-16.859-15.449-21.112 0-4.253 1.505-14.824 15.449-21.112L473.41 269.383c7.616-3.434 15.763-4.155 21.258-4.155 5.494 0 13.642 0.721 21.258 4.155l269.085 121.349c13.943 6.288 15.449 16.859 15.449 21.112 0 4.253-1.505 14.824-15.449 21.112L515.925 554.305c-7.615 3.435-15.763 4.155-21.257 4.155zM234.722 411.844L486.459 525.37c1.446 0.652 4.362 1.349 8.208 1.349 3.847 0 6.762-0.697 8.209-1.349l251.737-113.526-251.737-113.525c-1.446-0.652-4.362-1.349-8.208-1.349-3.847 0-6.763 0.697-8.209 1.349L234.722 411.844z" fill="#FFFFFF" p-id="103762"></path><path d="M494.668 645.602c-7.55 0-15.098-1.388-21.258-4.166L204.325 520.087c-7.99-3.603-11.547-13.002-7.943-20.992 3.604-7.991 13.002-11.547 20.992-7.943L486.459 612.5c3.989 1.799 12.428 1.799 16.417 0l269.085-121.349c7.99-3.603 17.389-0.047 20.992 7.943 3.604 7.99 0.047 17.389-7.943 20.992l-269.085 121.35c-6.158 2.777-13.709 4.166-21.257 4.166z" fill="#FFFFFF" p-id="103763"></path><path d="M494.668 732.732c-7.55 0-15.098-1.388-21.258-4.166L204.325 607.218c-7.99-3.603-11.547-13.002-7.943-20.992 3.604-7.99 13.002-11.547 20.992-7.944l269.085 121.349c3.989 1.799 12.428 1.799 16.417 0l269.086-121.349c7.99-3.603 17.389-0.047 20.992 7.944 3.604 7.99 0.047 17.389-7.943 20.992L515.925 728.567c-6.158 2.777-13.709 4.165-21.257 4.165z" fill="#FFFFFF" p-id="103764"></path></svg>