<?xml version="1.0" standalone="no"?><!DOCTYPE svg PUBLIC "-//W3C//DTD SVG 1.1//EN" "http://www.w3.org/Graphics/SVG/1.1/DTD/svg11.dtd"><svg t="1753758271527" class="icon" viewBox="0 0 1024 1024" version="1.1" xmlns="http://www.w3.org/2000/svg" p-id="27153" xmlns:xlink="http://www.w3.org/1999/xlink" width="256" height="256"><path d="M6.826667 894.020267a505.173333 121.992533 0 1 0 1010.346666 0 505.173333 121.992533 0 1 0-1010.346666 0Z" fill="#009AFF" opacity=".3" p-id="27154"></path><path d="M165.4784 873.540267a346.5216 77.687467 0 1 0 693.0432 0 346.5216 77.687467 0 1 0-693.0432 0Z" fill="#009AFF" opacity=".2" p-id="27155"></path><path d="M514.116267 1019.357867v-6.826667h27.306666v6.826667c-8.942933-0.068267-18.158933 0-27.306666 0z m-6.826667 0h-27.306667v-6.826667h27.306667z m40.96 0v-6.826667l27.306667-0.682667v6.826667z m-75.093333 0c-9.216 0-18.295467-0.4096-27.306667-0.682667v-6.826667l27.306667 0.682667z m109.226666-0.8192v-6.826667l27.306667-1.092267v6.826667z m-143.36 0l-27.306666-1.160534 0.341333-6.826666 27.306667 1.160533z m177.493334-1.365334v-6.826666l27.306666-1.570134 0.477867 6.826667z m-211.626667 0c-9.216-0.477867-18.295467-1.024-27.306667-1.6384l0.477867-6.826666c8.942933 0.6144 18.0224 1.160533 27.306667 1.6384z m245.76-1.911466l-0.477867-6.826667c9.216-0.6144 18.2272-1.297067 27.306667-2.048l0.6144 6.826667c-9.079467 0.2048-18.2272 0.887467-27.4432 1.501866z m-279.893333 0l-27.306667-2.116267 0.6144-6.826667 27.306667 2.116267z m314.026666-2.525867l-0.546133-6.826667c9.147733-0.750933 18.158933-1.6384 27.306667-2.594133l0.682666 6.826667c-9.079467 0.2048-18.295467 1.092267-27.511466 1.911466z m-348.16 0q-13.653333-1.2288-27.306666-2.6624l0.750933-6.826667c8.874667 0.955733 17.885867 1.8432 27.306667 2.6624z m382.293334-3.072l-0.750934-6.826667 27.306667-3.140266 0.887467 6.826666z m-416.426667-0.341333c-9.147733-0.955733-18.2272-2.048-27.306667-3.208534l0.8192-6.826666 27.306667 3.208533z m450.082133-3.754667l-0.887466-6.826667c9.147733-1.2288 18.158933-2.4576 26.897066-3.822933l1.092267 6.826667c-8.738133 0.477867-17.749333 1.774933-26.965333 2.935466z m-484.010666 0l-27.306667-3.822933 1.024-6.826667 27.306667 3.822933z m517.870933-4.5056l-1.092267-6.826667q13.653333-2.116267 26.8288-4.5056l1.2288 6.826667c-8.669867 0.136533-17.681067 1.8432-26.8288 3.2768z m-551.662933-0.4096c-9.216-1.4336-18.2272-2.935467-26.965334-4.573867l1.2288-6.826666q13.1072 2.321067 26.8288 4.5056z m585.3184-5.3248l-1.2288-6.826667q13.653333-2.525867 26.624-5.3248l1.501866 6.826667c-8.6016 0.6144-17.544533 2.389333-26.760533 4.096z m-619.042134-0.477867c-9.216-1.706667-18.158933-3.549867-26.8288-5.393066l1.501867-6.826667c8.6016 1.8432 17.476267 3.618133 26.624 5.393067z m652.561067-6.3488l-1.4336-6.826666c9.079467-2.048 18.0224-4.164267 26.4192-6.280534l1.706667 6.485334c-8.328533 1.160533-17.271467 3.413333-26.555734 5.393066z m-686.08-0.546133c-9.079467-2.048-18.0224-4.164267-26.624-6.417067l1.774933-6.485333c8.465067 2.2528 17.339733 4.369067 26.350934 6.417067z m719.394133-7.509333l-1.774933-6.417067c9.0112-2.4576 17.8176-4.983467 26.0096-7.5776l2.116267 6.417067c-8.192 1.365333-17.066667 3.959467-26.2144 6.3488z m-752.64-0.682667c-9.147733-2.4576-18.0224-5.051733-26.282666-7.645867l2.116266-6.417066c8.192 2.594133 16.930133 5.188267 26.0096 7.645866zM919.893333 969.386667l-2.184533-6.417067c9.0112-2.935467 17.544533-6.007467 25.463467-9.147733l2.525866 6.212266c-7.9872 3.413333-16.657067 6.5536-25.8048 9.352534z m-818.244266-0.8192c-9.147733-3.072-17.8176-6.280533-25.8048-9.489067l2.6624-6.212267c7.7824 3.208533 16.315733 6.3488 25.326933 9.284267z m850.397866-11.127467l-2.6624-6.144c8.874667-3.754667 17.066667-7.714133 24.1664-11.605333l3.345067 5.802666a249.378133 249.378133 0 0 1-24.849067 12.151467z m-882.551466-1.024a260.846933 260.846933 0 0 1-24.712534-12.219733l3.413334-5.802667a248.2176 248.2176 0 0 0 24.098133 11.8784zM983.04 942.08l-3.549867-5.7344a113.937067 113.937067 0 0 0 20.957867-15.7696l4.778667 4.778667A122.88 122.88 0 0 1 983.04 942.08z m-944.196267-1.2288a108.270933 108.270933 0 0 1-21.845333-17.2032l4.983467-4.573867a106.7008 106.7008 0 0 0 20.48 16.1792z m971.093334-20.48l-5.3248-4.232533a34.6112 34.6112 0 0 0 9.147733-21.845334 29.4912 29.4912 0 0 0-3.072-12.834133l6.144-2.8672a36.317867 36.317867 0 0 1 3.754667 15.701333 40.96 40.96 0 0 1-10.6496 26.0096z m-997.512534-2.048A39.7312 39.7312 0 0 1 3.413333 894.293333v-2.798933l6.826667 0.546133v2.2528a33.518933 33.518933 0 0 0 7.645867 20.48z m-0.955733-32.290133l-6.826667-1.911467a54.613333 54.613333 0 0 1 15.906134-23.3472l4.7104 4.9152a46.830933 46.830933 0 0 0-13.789867 20.2752z m996.078933-10.103467a75.776 75.776 0 0 0-18.432-17.885867l4.027734-5.393066a83.1488 83.1488 0 0 1 20.0704 19.524266zM30.446933 861.320533l-4.3008-5.188266a156.194133 156.194133 0 0 1 23.278934-15.018667l3.2768 5.870933a147.933867 147.933867 0 0 0-22.254934 14.336z m953.207467-6.826666a198.314667 198.314667 0 0 0-23.415467-12.834134l2.935467-6.075733a206.711467 206.711467 0 0 1 24.234667 13.312z m-925.013333-10.581334l-3.072-5.9392c7.5776-3.822933 16.042667-7.509333 25.1904-11.127466l2.525866 6.280533c-8.942933 3.4816-17.2032 7.099733-24.644266 10.786133z m895.522133-5.256533c-7.714133-3.413333-16.1792-6.826667-25.122133-9.898667l2.321066-6.280533c9.079467 3.208533 17.681067 6.826667 25.531734 10.103467z m-864.597333-7.918933l-2.389334-6.280534a428.032 428.032 0 0 1 26.0096-8.8064l1.979734 6.417067c-8.942933 2.730667-17.544533 5.666133-25.6 8.669867z m832.853333-4.164267c-8.123733-2.798933-16.861867-5.461333-25.873067-8.055467l1.911467-6.417066c9.147733 2.594133 17.954133 5.3248 26.146133 8.123733z m-800.9728-6.826667l-1.979733-6.417066c8.465067-2.4576 17.339733-4.9152 26.4192-6.826667l1.706666 6.826667c-8.738133 1.911467-17.544533 4.3008-25.873066 6.7584z m768.546133-3.413333c-8.3968-2.321067-17.2032-4.5056-26.282666-6.826667l1.570133-6.826666c9.147733 2.116267 18.090667 4.437333 26.555733 6.826666z m-735.8464-5.3248l-1.6384-6.485333c8.6016-2.116267 17.544533-4.164267 26.692267-6.075734l1.4336 6.826667c-8.8064 1.979733-17.681067 4.027733-26.2144 6.075733z m703.146667-2.8672c-8.6016-1.979733-17.476267-3.822933-26.555733-5.666133l1.297066-6.826667c9.216 1.8432 18.158933 3.6864 26.8288 5.666133z m-669.764267-4.5056l-1.365333-6.826667c8.669867-1.774933 17.681067-3.4816 26.8288-5.12l1.2288 6.826667c-9.079467 1.979733-17.954133 3.6864-26.624 5.461333z m636.5184-2.4576c-8.669867-1.6384-17.6128-3.208533-26.760533-4.7104l1.092267-6.826667c9.216 1.501867 18.2272 3.140267 27.306666 4.778667z m-603.136-3.754667l-1.160533-6.826666q13.243733-2.2528 27.306667-4.3008l1.024 6.826666c-9.147733 1.706667-18.363733 3.140267-27.101867 4.642134z m569.617067-2.048c-8.738133-1.4336-17.749333-2.798933-26.897067-4.027733l0.955734-6.826667c9.216 1.297067 18.2272 2.6624 27.306666 4.096z m-536.029867-3.2768l-0.955733-6.826666c8.874667-1.2288 17.885867-2.4576 27.306667-3.618134l0.8192 6.826667z m502.442667-1.706666c-8.874667-1.160533-17.885867-2.321067-27.306667-3.345067l0.8192-6.826667c9.216 1.092267 18.2272 2.184533 27.306667 3.413334z m-468.718933-2.6624l-0.8192-6.826667c8.942933-1.092267 18.0224-2.048 27.306666-3.003733l0.682667 6.826666c-9.147733 1.2288-18.2272 2.2528-27.101867 3.345067z m434.926933-1.501867c-8.874667-0.955733-17.954133-1.911467-27.306667-2.730667l0.682667-6.826666c9.147733 0.887467 18.2272 1.774933 27.306667 2.798933z m-401.066667-2.184533l-0.682666-6.826667q13.653333-1.297067 27.306666-2.4576l0.546134 6.826667c-9.147733 1.092267-18.2272 1.911467-27.101867 2.798933z m367.2064-1.2288c-8.942933-0.8192-18.0224-1.570133-27.306666-2.2528l0.546133-6.826667 27.306667 2.2528z m-333.277866-1.774934l-0.546134-6.826666c8.942933-0.750933 18.0224-1.365333 27.306667-1.979734l0.477867 6.826667z m299.349333-0.6144l-27.306667-1.774933v-6.826667l27.306667 1.774934z m-265.4208-1.4336l-0.4096-6.826666c9.0112-0.546133 18.090667-1.024 27.306667-1.4336v6.826666c-8.8064 0.682667-17.8176 0.682667-26.8288 1.4336zM621.226667 778.24c-8.942933-0.477867-18.0224-0.887467-27.306667-1.2288v-6.826667l27.306667 1.297067z m-197.4272-1.024v-6.826667c9.0112-0.4096 18.158933-0.750933 27.306666-1.024v6.826667c-9.0112 0.4096-18.090667 0.682667-27.101866 1.092267z m163.4304-0.477867q-13.653333-0.546133-27.306667-0.8192v-6.826666l27.306667 0.750933z m-129.706667-0.682666v-6.826667c9.0112 0 18.158933-0.4096 27.306667-0.546133v6.826666z m95.573333 0c-9.0112 0-18.090667-0.341333-27.306666-0.341334v-6.826666c9.147733 0 18.295467 0 27.306666 0.4096z m-61.44-0.341334v-6.826666h27.306667v6.826666h-27.306667z" fill="#0096F8" p-id="27156"></path><path d="M231.560533 128.641707l5.290667-5.236054 168.523093 170.530134-5.297493 5.236053zM723.995307 391.304533l5.26336-5.26336 183.965013 183.965014-5.256533 5.256533zM124.7232 156.603733h-14.9504v-14.9504h-7.441067v14.9504H87.381333v7.509334h14.9504v14.9504h7.441067v-14.9504h14.9504v-7.509334zM185.344 73.1136H177.493333V65.262933h-7.441066v7.850667h-7.509334v7.441067h7.509334v7.850666H177.493333V80.554667h7.850667v-7.441067zM356.488533 159.812267l12.970667 6.826666-2.4576-14.472533 10.513067-10.24-14.5408-2.116267-6.485334-13.1072-6.485333 13.1072-14.472533 2.116267 10.513066 10.24-2.525866 14.472533 12.970666-6.826666zM921.326933 524.424533l12.970667 6.826667-2.4576-14.472533 10.513067-10.171734-14.5408-2.116266-6.485334-13.175467-6.485333 13.175467-14.472533 2.116266 10.513066 10.171734-2.525866 14.472533 12.970666-6.826667z" fill="#00BEFF" p-id="27157"></path><path d="M192.853333 210.7392m41.847467 0l552.072533 0q41.847467 0 41.847467 41.847467l0 102.468266q0 41.847467-41.847467 41.847467l-552.072533 0q-41.847467 0-41.847467-41.847467l0-102.468266q0-41.847467 41.847467-41.847467Z" fill="#73BCFE" p-id="27158"></path><path d="M786.8416 400.657067H234.769067A45.602133 45.602133 0 0 1 189.166933 354.986667V252.586667a45.602133 45.602133 0 0 1 45.602134-45.602134h552.072533a45.6704 45.6704 0 0 1 45.602133 45.602134v102.4a45.6704 45.6704 0 0 1-45.602133 45.6704zM234.769067 214.493867A38.229333 38.229333 0 0 0 196.608 252.586667v102.4a38.229333 38.229333 0 0 0 38.161067 38.161066h552.072533a38.161067 38.161067 0 0 0 38.0928-38.161066V252.586667a38.161067 38.161067 0 0 0-38.0928-38.161067z" fill="#0078EC" p-id="27159"></path><path d="M192.853333 438.135467m41.847467 0l552.072533 0q41.847467 0 41.847467 41.847466l0 102.468267q0 41.847467-41.847467 41.847467l-552.072533 0q-41.847467 0-41.847467-41.847467l0-102.468267q0-41.847467 41.847467-41.847466Z" fill="#73BCFE" p-id="27160"></path><path d="M786.8416 628.053333H234.769067a45.602133 45.602133 0 0 1-45.602134-45.602133v-102.4a45.602133 45.602133 0 0 1 45.602134-45.602133h552.072533a45.6704 45.6704 0 0 1 45.602133 45.602133v102.4a45.6704 45.6704 0 0 1-45.602133 45.602133zM234.769067 441.890133a38.229333 38.229333 0 0 0-38.161067 38.161067v102.4a38.229333 38.229333 0 0 0 38.161067 38.161067h552.072533a38.161067 38.161067 0 0 0 38.0928-38.161067v-102.4a38.161067 38.161067 0 0 0-38.0928-38.161067z" fill="#0078EC" p-id="27161"></path><path d="M192.853333 665.531733m41.847467 0l552.072533 0q41.847467 0 41.847467 41.847467l0 102.468267q0 41.847467-41.847467 41.847466l-552.072533 0q-41.847467 0-41.847467-41.847466l0-102.468267q0-41.847467 41.847467-41.847467Z" fill="#73BCFE" p-id="27162"></path><path d="M786.8416 855.4496H234.769067a45.602133 45.602133 0 0 1-45.602134-45.602133v-102.4A45.602133 45.602133 0 0 1 234.769067 662.186667h552.072533a45.6704 45.6704 0 0 1 45.602133 45.602133v102.4a45.6704 45.6704 0 0 1-45.602133 45.2608zM234.769067 669.013333a38.229333 38.229333 0 0 0-38.161067 38.161067v102.4a38.229333 38.229333 0 0 0 38.161067 38.161067h552.072533a38.161067 38.161067 0 0 0 38.0928-38.161067v-102.4a38.161067 38.161067 0 0 0-38.0928-38.161067z" fill="#0078EC" p-id="27163"></path><path d="M215.6544 233.540267m22.7328 0l547.2256 0q22.7328 0 22.7328 22.7328l0 98.440533q0 22.7328-22.7328 22.7328l-547.2256 0q-22.7328 0-22.7328-22.7328l0-98.440533q0-22.7328 22.7328-22.7328Z" fill="#74BCFE" p-id="27164"></path><path d="M785.6128 381.1328H238.3872A26.487467 26.487467 0 0 1 211.626667 354.986667V256.273067a26.487467 26.487467 0 0 1 26.487466-26.487467h547.2256a26.487467 26.487467 0 0 1 27.0336 26.487467V354.986667a26.487467 26.487467 0 0 1-26.760533 26.146133zM238.3872 237.226667a18.978133 18.978133 0 0 0-18.978133 19.0464V354.986667a18.978133 18.978133 0 0 0 18.978133 18.978133h547.2256a19.0464 19.0464 0 0 0 18.978133-18.978133V256.273067a19.0464 19.0464 0 0 0-18.978133-19.0464z" fill="#348CF1" p-id="27165"></path><path d="M214.4256 465.032533m22.7328 0l547.2256 0q22.7328 0 22.7328 22.7328l0 91.5456q0 22.7328-22.7328 22.7328l-547.2256 0q-22.7328 0-22.7328-22.7328l0-91.5456q0-22.7328 22.7328-22.7328Z" fill="#0094F2" p-id="27166"></path><path d="M784.384 605.730133H237.1584a26.487467 26.487467 0 0 1-26.487467-26.487466v-91.477334a26.487467 26.487467 0 0 1 26.487467-26.487466h547.2256a26.487467 26.487467 0 0 1 26.487467 26.487466v91.477334a26.487467 26.487467 0 0 1-26.487467 26.487466zM237.1584 468.718933A19.0464 19.0464 0 0 0 218.453333 487.765333v91.477334a19.0464 19.0464 0 0 0 18.978134 19.0464h546.952533a18.978133 18.978133 0 0 0 18.978133-19.0464v-91.477334a18.978133 18.978133 0 0 0-18.978133-19.0464z" fill="#0078EC" p-id="27167"></path><path d="M214.4256 689.5616m22.7328 0l547.2256 0q22.7328 0 22.7328 22.7328l0 91.5456q0 22.7328-22.7328 22.7328l-547.2256 0q-22.7328 0-22.7328-22.7328l0-91.5456q0-22.7328 22.7328-22.7328Z" fill="#0094F2" p-id="27168"></path><path d="M784.384 830.327467H237.1584a26.487467 26.487467 0 0 1-26.487467-26.487467v-91.5456a26.487467 26.487467 0 0 1 26.487467-26.4192h547.2256a26.487467 26.487467 0 0 1 26.487467 26.4192v91.5456a26.487467 26.487467 0 0 1-26.487467 26.487467z m-547.2256-137.0112a19.0464 19.0464 0 0 0-18.705067 18.978133v91.5456a18.978133 18.978133 0 0 0 18.978134 18.978133h546.952533a18.909867 18.909867 0 0 0 18.978133-18.978133v-91.5456a18.978133 18.978133 0 0 0-18.978133-18.978133z" fill="#0078EC" p-id="27169"></path><path d="M271.5648 296.618667h29.9008v29.9008h-29.9008zM331.776 296.618667h29.9008v29.9008H331.776zM392.055467 296.618667h29.9008v29.9008h-29.9008zM452.266667 296.618667h29.9008v29.9008h-29.9008z" fill="#F7FA00" p-id="27170"></path><path d="M670.378667 291.976533m10.171733 0l70.2464 0q10.171733 0 10.171733 10.171734l0 18.705066q0 10.171733-10.171733 10.171734l-70.2464 0q-10.171733 0-10.171733-10.171734l0-18.705066q0-10.171733 10.171733-10.171734Z" fill="#FFFFFF" p-id="27171"></path><path d="M750.933333 334.848H680.482133a13.653333 13.653333 0 0 1-13.653333-13.653333v-19.0464a13.653333 13.653333 0 0 1 13.653333-13.653334H750.933333a13.653333 13.653333 0 0 1 13.653334 13.653334V320.853333a13.653333 13.653333 0 0 1-13.653334 13.994667z m-70.314666-39.1168a6.417067 6.417067 0 0 0-6.3488 6.417067V320.853333a6.417067 6.417067 0 0 0 6.3488 6.417067H750.933333a6.417067 6.417067 0 0 0 6.417067-6.417067v-18.705066a6.417067 6.417067 0 0 0-6.417067-6.417067z" fill="#3089F0" p-id="27172"></path><path d="M271.5648 521.489067h29.9008v29.9008h-29.9008zM331.776 521.489067h29.9008v29.9008H331.776zM392.055467 521.489067h29.9008v29.9008h-29.9008zM452.266667 521.489067h29.9008v29.9008h-29.9008z" fill="#F7FA00" p-id="27173"></path><path d="M670.378667 516.9152m10.171733 0l70.2464 0q10.171733 0 10.171733 10.171733l0 18.705067q0 10.171733-10.171733 10.171733l-70.2464 0q-10.171733 0-10.171733-10.171733l0-18.705067q0-10.171733 10.171733-10.171733Z" fill="#FFFFFF" p-id="27174"></path><path d="M750.933333 559.786667H680.482133a13.653333 13.653333 0 0 1-13.653333-13.653334v-19.114666a13.653333 13.653333 0 0 1 13.653333-13.653334H750.933333a13.653333 13.653333 0 0 1 13.653334 13.653334V546.133333a13.653333 13.653333 0 0 1-13.653334 13.653334z m-70.314666-39.1168a6.417067 6.417067 0 0 0-6.3488 6.417066V546.133333a6.417067 6.417067 0 0 0 6.3488 6.417067H750.933333a6.417067 6.417067 0 0 0 6.417067-6.417067v-19.114666a6.826667 6.826667 0 0 0-6.417067-6.417067z" fill="#3089F0" p-id="27175"></path><path d="M271.5648 746.359467h29.9008v29.9008h-29.9008zM331.776 746.359467h29.9008v29.9008H331.776zM392.055467 746.359467h29.9008v29.9008h-29.9008zM452.266667 746.359467h29.9008v29.9008h-29.9008z" fill="#F7FA00" p-id="27176"></path><path d="M670.378667 741.7856m10.171733 0l70.2464 0q10.171733 0 10.171733 10.171733l0 18.705067q0 10.171733-10.171733 10.171733l-70.2464 0q-10.171733 0-10.171733-10.171733l0-18.705067q0-10.171733 10.171733-10.171733Z" fill="#FFFFFF" p-id="27177"></path><path d="M750.933333 784.5888H680.482133a13.653333 13.653333 0 0 1-13.653333-13.653333v-18.773334a13.653333 13.653333 0 0 1 13.653333-13.653333H750.933333a13.653333 13.653333 0 0 1 13.653334 13.653333v18.773334a13.653333 13.653333 0 0 1-13.653334 13.653333z m-70.314666-39.048533a6.417067 6.417067 0 0 0-6.3488 6.417066v18.773334a6.417067 6.417067 0 0 0 6.3488 6.417066H750.933333a6.826667 6.826667 0 0 0 6.417067-6.417066v-18.773334a6.417067 6.417067 0 0 0-6.417067-6.417066z" fill="#3089F0" p-id="27178"></path></svg>