<?xml version="1.0" standalone="no"?><!DOCTYPE svg PUBLIC "-//W3C//DTD SVG 1.1//EN" "http://www.w3.org/Graphics/SVG/1.1/DTD/svg11.dtd"><svg t="1753153990890" class="icon" viewBox="0 0 1024 1024" version="1.1" xmlns="http://www.w3.org/2000/svg" p-id="10099" width="256" height="256" xmlns:xlink="http://www.w3.org/1999/xlink"><path d="M548.571429 329.142857a146.285714 146.285714 0 1 1-292.571429 0 146.285714 146.285714 0 0 1 292.571429 0zM146.285714 731.428571a73.142857 73.142857 0 0 0 73.142857 73.142858h438.857143a73.142857 73.142857 0 0 0 73.142857-73.142858v-73.142857a146.285714 146.285714 0 0 0-146.285714-146.285714H292.571429a146.285714 146.285714 0 0 0-146.285715 146.285714v73.142857z" fill="#7ACEFF" p-id="10100"></path><path d="M475.428571 585.142857a219.428571 219.428571 0 1 0 438.857143 0 219.428571 219.428571 0 1 0-438.857143 0Z" fill="#0088FF" p-id="10101"></path><path d="M548.571429 548.571429m0 0l292.571428 0q0 0 0 0l0 73.142857q0 0 0 0l-292.571428 0q0 0 0 0l0-73.142857q0 0 0 0Z" fill="#7ACEFF" p-id="10102"></path></svg>