<?xml version="1.0" standalone="no"?><!DOCTYPE svg PUBLIC "-//W3C//DTD SVG 1.1//EN" "http://www.w3.org/Graphics/SVG/1.1/DTD/svg11.dtd"><svg t="1754898181192" class="icon" viewBox="0 0 1024 1024" version="1.1" xmlns="http://www.w3.org/2000/svg" p-id="43957" xmlns:xlink="http://www.w3.org/1999/xlink" width="200" height="200"><path d="M861.0304 303.3088L161.792 705.8432a65.7408 65.7408 0 0 1-7.424-29.8496L153.6 337.3056c0-23.04 12.288-44.544 32.256-56.064L478.72 111.2064c19.968-11.52 44.7488-11.7248 64.6656-0.2048l293.7344 168.8576c10.1888 5.632 18.176 13.824 23.8592 23.4496z" fill="#4C8EC0" p-id="43958"></path><path d="M860.672 708.9664a62.976 62.976 0 0 1-22.528 21.7088l-293.12 169.984c-19.968 11.5712-44.544 11.776-64.6656 0.2048l-293.5296-168.8064a64.4096 64.4096 0 0 1-25.3952-26.7776l348.8256-199.5264 350.3616 203.264z" fill="#004678" p-id="43959"></path><path d="M511.232 267.1616a239.4112 239.4112 0 1 0 0 478.72 239.4112 239.4112 0 0 0 0-478.72z m0 359.5776a120.1152 120.1152 0 0 1-120.2176-120.2176 120.1152 120.1152 0 0 1 120.2176-120.1664 120.1152 120.1152 0 0 1 120.1664 120.1664 120.1152 120.1152 0 0 1-120.1664 120.2176z" fill="#FFFFFF" p-id="43960"></path><path d="M870.4 674.6112c0 12.288-3.5328 24.2176-9.728 34.3552L509.2352 506.5216l352.1024-202.6496c5.4784 9.5744 8.3968 20.3264 8.3968 31.6416L870.4 674.6112z" fill="#005A92" p-id="43961"></path><path d="M750.592 491.8784v27.3408h-27.3408v27.392h-27.3408v-27.392h-27.392v-27.3408h27.392v-27.3408h27.3408v27.3408h27.3408zM851.2512 492.8512v27.3408h-27.3408v27.392h-27.392v-27.392h-27.3408v-27.3408h27.3408v-27.3408h27.392v27.3408h27.3408z" fill="#FFFFFF" p-id="43962"></path></svg>