<?xml version="1.0" standalone="no"?><!DOCTYPE svg PUBLIC "-//W3C//DTD SVG 1.1//EN" "http://www.w3.org/Graphics/SVG/1.1/DTD/svg11.dtd"><svg t="1752563311502" class="icon" viewBox="0 0 1024 1024" version="1.1" xmlns="http://www.w3.org/2000/svg" p-id="21741" xmlns:xlink="http://www.w3.org/1999/xlink" width="128" height="128"><path d="M311.6 447.1v185.2H495c92.5 0 167.8-75.3 167.8-167.8V279.3H479.4c-92.5 0-167.8 75.3-167.8 167.8z m291.2 17.3c0 59.5-48.4 107.8-107.8 107.8h-98.7c1.9-3.2 4-6.5 6.3-9.9 26.3-38.9 64.8-67.1 114.4-83.8l-19.2-56.8c-60.1 20.3-100.2 52.8-126.1 82.7v-57.3c0-59.5 48.4-107.8 107.8-107.8h123.4v125.1z" p-id="21742" fill="#515151"></path><path d="M171.3 772.2h675.9c38.5 0 69.8-31.3 69.8-69.8V207.6c0-38.5-31.3-69.8-69.8-69.8H171.3c-38.5 0-69.8 31.3-69.8 69.8v494.7c0 38.6 31.3 69.9 69.8 69.9z m0.2-564.4H847v494.4H171.5V207.8zM891.9 819.3H139.7c-19.3 0-35 15.7-35 35s15.7 35 35 35h752.2c19.3 0 35-15.7 35-35s-15.6-35-35-35z" p-id="21743" fill="#515151"></path></svg>