<?xml version="1.0" standalone="no"?><!DOCTYPE svg PUBLIC "-//W3C//DTD SVG 1.1//EN" "http://www.w3.org/Graphics/SVG/1.1/DTD/svg11.dtd"><svg t="1752474222931" class="icon" viewBox="0 0 1024 1024" version="1.1" xmlns="http://www.w3.org/2000/svg" p-id="4345" xmlns:xlink="http://www.w3.org/1999/xlink" width="256" height="256"><path d="M576.111 927.64c-4.956 0-9.922-1.15-14.485-3.467l-128.026-65a32 32 0 0 1-17.513-28.533V497.683L165.184 246.779a32 32 0 0 1 22.627-54.627h640.857a32 32 0 0 1 22.627 54.627L608.112 489.963V895.64a31.997 31.997 0 0 1-32.001 32z m-96.024-116.642l64.025 32.507V476.708a31.996 31.996 0 0 1 9.373-22.627l197.928-197.929H265.066L470.714 461.8a32.001 32.001 0 0 1 9.373 22.627v326.571z" fill="" p-id="4346"></path></svg>