<?xml version="1.0" standalone="no"?><!DOCTYPE svg PUBLIC "-//W3C//DTD SVG 1.1//EN" "http://www.w3.org/Graphics/SVG/1.1/DTD/svg11.dtd"><svg t="1751869473467" class="icon" viewBox="0 0 1024 1024" version="1.1" xmlns="http://www.w3.org/2000/svg" p-id="4822" xmlns:xlink="http://www.w3.org/1999/xlink" width="256" height="256"><path d="M554.154667 68.266667C353.6384 68.266667 185.5488 205.994667 134.144 393.181867c57.617067 8.2432 102.365867 58.197333 102.365867 118.818133 0 60.6208-44.7488 111.0528-102.382934 118.818133C185.088 818.005333 353.655467 955.733333 553.659733 955.733333 794.624 955.733333 989.866667 756.906667 989.866667 511.522133 989.866667 266.120533 794.624 68.266667 554.154667 68.266667z" fill="#612174" p-id="4823"></path><path d="M333.192533 522.666667c0-11.144533 8.0896-19.387733 18.090667-19.387734 10.001067 0 18.090667 8.2432 18.090667 19.387734 0 11.1616-8.0896 19.4048-18.090667 19.4048-10.001067 0-18.090667-8.2432-18.090667-19.4048zM404.616533 377.668267h29.047467l49.527467 90.692266 16.196266 34.423467h0.938667c-1.416533-16.4864-3.805867-37.341867-3.805867-55.296V377.685333h26.6752v161.4848h-28.5696L445.098667 448l-16.196267-34.423467h-0.955733c1.4336 16.964267 3.805867 36.352 3.805866 54.784v70.826667h-27.136v-161.501867zM563.6608 377.668267h95.726933v24.234666h-67.618133v41.233067h57.1392v24.234667h-57.1392V515.413333h69.9904v24.234667h-98.0992zM726.528 401.425067h-45.7216v-24.234667h120.0128v24.234667h-45.7216v137.728h-28.091733v-137.728z" fill="#FFFFFF" p-id="4824"></path><path d="M445.576533 659.9168c0-27.648 14.762667-45.1072 36.6592-45.1072 10.001067 0 17.6128 4.846933 22.391467 10.666667l-3.345067 3.8912c-4.7616-5.341867-10.9568-9.216-19.0464-9.216-19.0464 0-30.481067 15.5136-30.481066 39.765333 0 24.234667 11.434667 40.2432 30.0032 40.2432 9.045333 0 15.7184-3.874133 21.9136-10.666667l3.328 3.874134c-6.656 7.765333-14.2848 12.629333-25.719467 12.629333-20.9408 0-35.703467-17.954133-35.703467-46.08zM518.912 672.512c0-21.333333 13.312-33.450667 28.091733-33.450667 15.240533 0 28.091733 12.117333 28.091734 33.450667s-13.329067 33.467733-28.091734 33.467733c-14.762667 0-28.091733-12.612267-28.091733-33.450666z m50.466133 0c0-16.964267-9.5232-28.603733-21.896533-28.603733-12.868267 0-21.9136 11.639467-21.9136 28.603733 0 16.981333 9.5232 28.142933 21.9136 28.142933 12.373333 0 21.896533-11.639467 21.896533-28.142933zM594.141867 640.034133h4.778666l0.4608 12.117334h0.477867c4.283733-7.765333 10.478933-13.585067 18.090667-13.585067 2.389333 0 4.283733 0.494933 6.1952 1.467733l-1.4336 5.3248c-1.8944-0.9728-3.328-0.9728-5.717334-0.9728-5.700267 0-12.373333 4.369067-17.134933 16.4864v43.656534h-5.717333V640zM630.818133 672.512c0-20.8384 13.312-33.450667 27.613867-33.450667 14.762667 0 23.808 10.666667 23.808 29.576534 0 1.450667 0 3.396267-0.477867 4.846933h-45.226666c0 16.008533 9.5232 27.648 23.808 27.648 6.656 0 12.373333-2.423467 16.657066-5.819733l2.389334 4.369066c-4.778667 2.901333-10.478933 6.314667-20.002134 6.314667-15.7184 0-28.5696-12.629333-28.5696-33.4848z m45.704534-4.352c0-16.4864-7.133867-24.251733-18.568534-24.251733-10.478933 0-20.002133 9.216-21.435733 24.234666h40.004267z" fill="#FFFFFF" p-id="4825"></path><path d="M34.133333 512.477867a85.3504 83.8144 90 1 0 167.6288 0 85.3504 83.8144 90 1 0-167.6288 0Z" fill="#894B99" p-id="4826"></path></svg>