<?xml version="1.0" standalone="no"?><!DOCTYPE svg PUBLIC "-//W3C//DTD SVG 1.1//EN" "http://www.w3.org/Graphics/SVG/1.1/DTD/svg11.dtd"><svg t="1752476400866" class="icon" viewBox="0 0 1177 1024" version="1.1" xmlns="http://www.w3.org/2000/svg" p-id="6195" xmlns:xlink="http://www.w3.org/1999/xlink" width="294.25" height="256"><path d="M721.123093 17.709054a104.170905 104.170905 0 0 1 90.212004 52.085453L1011.655748 416.683622a104.170905 104.170905 0 0 1 0 104.170905l-200.320651 346.889115a104.170905 104.170905 0 0 1-90.212004 52.085453h-400.537132a104.170905 104.170905 0 0 1-90.212004-52.085453L30.053306 520.854527a104.170905 104.170905 0 0 1 0-104.170905l200.320651-346.889115a104.170905 104.170905 0 0 1 90.212004-52.085453h400.537132z m0 88.545269h-400.537132a15.625636 15.625636 0 0 0-11.615056 5.15646l-1.927161 2.604273L106.775178 460.956256a15.625636 15.625636 0 0 0-1.354222 12.60468l1.354222 3.020956 200.268566 346.889115a15.625636 15.625636 0 0 0 10.260834 7.500305l3.281383 0.312513h400.537132a15.625636 15.625636 0 0 0 11.615056-5.15646l1.927161-2.604272 200.268566-346.941201a15.625636 15.625636 0 0 0 1.354222-12.604679l-1.354222-3.020957-200.268566-346.889115a15.625636 15.625636 0 0 0-10.260834-7.500305l-3.281383-0.312513zM520.854527 270.844354a197.92472 197.92472 0 1 1 0 395.849441 197.92472 197.92472 0 0 1 0-395.849441z m0 83.336724a114.587996 114.587996 0 1 0 0 229.175992 114.587996 114.587996 0 0 0 0-229.175992z" fill="#2c2c2c" p-id="6196"></path></svg>