<?xml version="1.0" standalone="no"?><!DOCTYPE svg PUBLIC "-//W3C//DTD SVG 1.1//EN" "http://www.w3.org/Graphics/SVG/1.1/DTD/svg11.dtd"><svg t="1681526027256" class="icon" viewBox="0 0 1024 1024" version="1.1" xmlns="http://www.w3.org/2000/svg" p-id="1239" xmlns:xlink="http://www.w3.org/1999/xlink" width="200" height="200"><path d="M214.706139 810.97913a425.984 425.984 0 1 0 602.421836-602.442865 425.984 425.984 0 1 0-602.421836 602.442865Z" fill="#00A0E9" p-id="1240"></path><path d="M295.8336 368.9984c33.0752 26.6752 66.1504 53.4528 99.1744 80.1792 30.8224 24.9856 61.6448 49.92 92.5696 74.8544 5.1712 4.1984 10.9568 7.3728 16.64 9.2672 4.1472 1.3312 8.192 2.048 12.2368 2.048 10.0864 0 20.0192-4.2496 30.6176-12.8512 25.4464-20.7872 50.9952-41.472 76.544-62.1568 11.6736-9.472 23.3472-18.8928 35.072-28.3648 7.4752-6.0416 14.9504-12.1344 22.3744-18.176 17.8176-14.4896 36.1984-29.4912 54.4768-43.9808 5.4272-4.3008 6.3488-8.9088 3.0208-14.4896-3.7888-6.2976-8.1408-12.9024-14.5408-18.688-9.9328-8.96-23.552-10.0864-34.304-10.0864H342.1184c-23.4496 0-41.3696 10.9056-49.1008 29.9008-1.536 3.6864-2.7136 8.0896 2.816 12.544z" fill="#FFFFFF" p-id="1241"></path><path d="M736.9216 645.5296c-42.5472-34.2016-88.32-71.168-144.128-116.48-4.0448-3.2768-7.424-3.2768-11.3152 0.0512-5.5808 4.8128-11.4688 9.472-17.152 13.9776l-4.3008 3.4304c-24.5248 19.6096-56.7296 21.248-82.0224 4.1984-7.3728-4.9664-14.1824-10.5472-21.4528-16.4352-3.328-2.7136-6.656-5.4272-10.1376-8.1408l-1.3312-1.0752-3.2768 2.4064c-1.3312 0.9216-2.56 1.8432-3.7376 2.7648l-35.4304 28.672c-34.56 28.0064-70.2976 56.9856-105.6768 85.1968-7.3216 5.8368-7.0656 11.2128-4.5056 17.5616 8.3968 20.5824 24.9856 31.488 47.9744 31.488h350.976c1.792 0 3.6352 0 5.4272-0.1024 20.2752-1.28 37.9392-15.104 43.9296-34.4064 1.792-5.7344 0.6656-9.472-3.84-13.1072zM289.9456 398.848v216.4224l133.5808-108.032zM608.6144 507.2384l133.376 107.8272V399.0528z" fill="#FFFFFF" p-id="1242"></path></svg>