<?xml version="1.0" standalone="no"?><!DOCTYPE svg PUBLIC "-//W3C//DTD SVG 1.1//EN" "http://www.w3.org/Graphics/SVG/1.1/DTD/svg11.dtd"><svg t="1703139086978" class="icon" viewBox="0 0 1024 1024" version="1.1" xmlns="http://www.w3.org/2000/svg" p-id="11164" xmlns:xlink="http://www.w3.org/1999/xlink" width="200" height="200"><path d="M118.4 0h787.2c64 0 118.4 51.2 118.4 118.4v787.2c0 64-51.2 118.4-118.4 118.4H118.4c-64 0-118.4-51.2-118.4-118.4V118.4C0 51.2 51.2 0 118.4 0z" fill="#1FCBB8" p-id="11165"></path><path d="M486.4 377.6h51.2v217.6h-51.2v-217.6z" fill="#FFFFFF" opacity=".99" p-id="11166"></path><path d="M419.2 297.6c0 51.2 41.6 92.8 92.8 92.8s92.8-41.6 92.8-92.8-41.6-92.8-92.8-92.8-92.8 41.6-92.8 92.8zM198.4 726.4c0 51.2 41.6 92.8 92.8 92.8s92.8-41.6 92.8-92.8-41.6-92.8-92.8-92.8-92.8 44.8-92.8 92.8zM643.2 726.4c0 51.2 41.6 92.8 92.8 92.8s92.8-41.6 92.8-92.8-41.6-92.8-92.8-92.8-92.8 44.8-92.8 92.8zM419.2 726.4c0 51.2 41.6 92.8 92.8 92.8s92.8-41.6 92.8-92.8-41.6-92.8-92.8-92.8-92.8 44.8-92.8 92.8zM316.8 518.4h393.6v80h51.2v-92.8c0-22.4-19.2-38.4-38.4-38.4H304c-22.4 0-38.4 19.2-38.4 38.4v92.8h51.2v-80z" fill="#FFFFFF" opacity=".99" p-id="11167"></path></svg>