<?xml version="1.0" standalone="no"?><!DOCTYPE svg PUBLIC "-//W3C//DTD SVG 1.1//EN" "http://www.w3.org/Graphics/SVG/1.1/DTD/svg11.dtd"><svg t="1703139124284" class="icon" viewBox="0 0 1024 1024" version="1.1" xmlns="http://www.w3.org/2000/svg" p-id="16640" xmlns:xlink="http://www.w3.org/1999/xlink" width="200" height="200"><path d="M300.05592 0h423.88816c200.041092 0 300.05592 100.014829 300.05592 300.05592v423.88816c0 200.041092-100.014829 300.05592-300.05592 300.05592H300.05592C100.014829 1024 0 923.973737 0 723.94408V300.05592C0 100.014829 100.014829 0 300.05592 0z" fill="#6C6CEA" opacity=".15" p-id="16641"></path><path d="M619.618563 737.482156H312.176158V322.020992c0-29.054268 23.554424-52.608692 52.608692-52.608691h202.225021c29.054268 0 52.608692 23.554424 52.608692 52.608691v415.44973zM735.698423 737.482156h-97.693689V407.274286h72.790031c13.755326 0 24.903658 11.148332 24.903658 24.903659v305.292777z" fill="#6C6CEA" p-id="16642"></path><path d="M216.426281 713.413194m20.581535 0l549.972933 0q20.581536 0 20.581536 20.581536l0 0q0 20.581536-20.581536 20.581535l-549.972933 0q-20.581536 0-20.581535-20.581535l0 0q0-20.581536 20.581535-20.581536Z" fill="#6C6CEA" p-id="16643"></path><path d="M392.958685 557.645272m20.581536 0l107.778641 0q20.581536 0 20.581536 20.581536l0 0q0 20.581536-20.581536 20.581535l-107.778641 0q-20.581536 0-20.581536-20.581535l0 0q0-20.581536 20.581536-20.581536Z" fill="#FFFFFF" p-id="16644"></path><path d="M392.958685 468.481486m20.581536 0l107.778641 0q20.581536 0 20.581536 20.581536l0 0q0 20.581536-20.581536 20.581536l-107.778641 0q-20.581536 0-20.581536-20.581536l0 0q0-20.581536 20.581536-20.581536Z" fill="#FFFFFF" p-id="16645"></path><path d="M392.958685 379.329135m20.581536 0l107.778641 0q20.581536 0 20.581536 20.581535l0 0q0 20.581536-20.581536 20.581536l-107.778641 0q-20.581536 0-20.581536-20.581536l0 0q0-20.581536 20.581536-20.581535Z" fill="#FFFFFF" p-id="16646"></path></svg>