<?xml version="1.0" standalone="no"?><!DOCTYPE svg PUBLIC "-//W3C//DTD SVG 1.1//EN" "http://www.w3.org/Graphics/SVG/1.1/DTD/svg11.dtd"><svg t="1682066564822" class="icon" viewBox="0 0 1024 1024" version="1.1" xmlns="http://www.w3.org/2000/svg" p-id="944" xmlns:xlink="http://www.w3.org/1999/xlink" width="200" height="200"><path d="M32 512c0 265.125 214.875 480 480 480s480-214.875 480-480S777.125 32 512 32C246.96875 32.09375 32.09375 246.96875 32 512z" fill="#2E98FE" p-id="945"></path><path d="M296.005625 719.38625c17.0625 17.34375 65.53125 3.5625 145.40625-41.4375l15-15.1875-102.375-103.59375-15.1875 15.375c-45.65625 79.40625-59.90625 127.6875-42.84375 144.84375z m75-176.8125l102.375 103.59375 199.96875-203.4375-102.28125-103.6875-200.0625 203.53125z m348.65625-208.40625l-41.15625-41.8125c-23.625-23.8125-37.59375-23.8125-61.03125 0l-29.15625 29.625 102.28125 103.78125 28.96875-29.4375c23.625-24 23.625-38.15625 0-61.96875l0.09375-0.1875zM321.786875 408.98l33.375-33.84375 14.15625 13.96875-33.375 33.84375-14.15625-13.96875z m17.25 7.03125c0 0.65625-0.09375 1.3125-0.1875 1.96875-0.09375 0.65625-0.28125 1.21875-0.5625 1.78125-0.28125 0.65625-0.5625 1.21875-1.03125 1.78125-0.28125 0.5625-0.75 1.125-1.21875 1.59375s-1.03125 0.84375-1.59375 1.21875c-0.46875 0.375-1.03125 0.65625-1.59375 0.84375-0.65625 0.28125-1.3125 0.46875-1.96875 0.5625-0.5625 0.09375-1.21875 0.1875-1.78125 0.1875-0.65625 0-1.3125-0.09375-1.96875-0.1875-0.65625-0.09375-1.21875-0.28125-1.78125-0.5625-0.65625-0.09375-1.3125-0.375-1.78125-0.84375l-1.59375-1.21875-1.21875-1.59375c-0.375-0.5625-0.75-1.125-1.03125-1.78125-0.09375-0.5625-0.28125-1.125-0.375-1.78125-0.28125-1.3125-0.28125-2.71875 0-4.03125 0.09375-0.5625 0.28125-1.125 0.375-1.78125 0.09375-0.65625 0.5625-1.125 1.03125-1.78125 0.375-0.46875 0.75-0.9375 1.21875-1.40625s1.03125-0.84375 1.59375-1.21875c0.5625-0.375 1.125-0.75 1.78125-1.03125 0.5625-0.28125 1.21875-0.46875 1.78125-0.5625 0.65625-0.09375 1.3125-0.1875 1.96875-0.1875 0.5625 0 1.21875 0.09375 1.78125 0.1875l1.96875 0.5625c0.5625 0.28125 1.125 0.65625 1.59375 1.03125 0.65625 0.28125 1.21875 0.65625 1.59375 1.21875 0.46875 0.375 0.9375 0.84375 1.21875 1.40625 0.375 0.65625 0.75 1.21875 1.03125 1.78125 0.28125 0.5625 0.46875 1.21875 0.5625 1.78125 0.09375 0.75 0.1875 1.40625 0.1875 2.0625z m33.1875-33.84375c0 0.65625-0.09375 1.3125-0.1875 1.96875-0.09375 0.65625-0.28125 1.21875-0.375 1.78125-0.28125 0.65625-0.5625 1.21875-1.03125 1.78125l-1.21875 1.59375-1.59375 1.21875c-0.46875 0.375-1.03125 0.75-1.59375 1.03125l-1.96875 0.375c-0.65625 0.09375-1.3125 0.1875-1.96875 0.1875-0.5625 0-1.21875-0.09375-1.78125-0.1875l-1.96875-0.375c-0.5625-0.28125-1.125-0.65625-1.59375-1.03125l-1.59375-1.21875-1.21875-1.59375c-0.375-0.5625-0.75-1.125-1.03125-1.78125-0.28125-0.5625-0.46875-1.21875-0.5625-1.78125-0.09375-0.65625-0.1875-1.3125-0.1875-1.96875 0-0.5625 0.09375-1.21875 0.1875-1.78125 0.09375-0.65625 0.375-1.3125 0.5625-1.96875 0.28125-0.5625 0.65625-1.125 1.03125-1.59375 0.375-0.5625 0.75-1.125 1.21875-1.59375l1.59375-1.21875c0.46875-0.375 1.03125-0.75 1.59375-1.03125 0.65625-0.28125 1.3125-0.46875 1.96875-0.5625 0.5625-0.09375 1.21875-0.1875 1.78125-0.1875 0.65625 0 1.3125 0.09375 1.96875 0.1875 0.65625 0.09375 1.3125 0.375 1.96875 0.5625 0.5625 0.28125 1.125 0.65625 1.59375 1.03125l1.59375 1.21875c0.46875 0.46875 0.84375 1.03125 1.21875 1.59375 0.375 0.46875 0.75 1.03125 1.03125 1.59375 0.09375 0.65625 0.28125 1.3125 0.375 1.96875 0.09375 0.5625 0.1875 1.21875 0.1875 1.78125zM355.255625 451.1675l51.375-51 13.96875 13.96875-51.1875 51.1875-14.15625-14.15625z m16.96875 7.21875c0 0.65625-0.09375 1.3125-0.1875 1.96875-0.1875 0.65625-0.375 1.21875-0.5625 1.78125-0.09375 0.65625-0.375 1.3125-0.84375 1.78125-0.375 0.46875-0.75 0.9375-1.21875 1.40625s-1.03125 0.84375-1.59375 1.21875c-0.5625 0.375-1.125 0.75-1.78125 1.03125-0.5625 0.28125-1.21875 0.46875-1.78125 0.5625-0.65625 0.09375-1.3125 0.1875-1.96875 0.1875-0.5625 0-1.21875-0.09375-1.78125-0.1875-0.65625-0.09375-1.3125-0.375-1.96875-0.5625-0.5625-0.28125-1.125-0.65625-1.59375-1.03125-0.65625-0.28125-1.21875-0.65625-1.59375-1.21875-0.46875-0.375-0.9375-0.84375-1.21875-1.40625-0.375-0.5625-0.75-1.125-1.03125-1.78125-0.28125-0.5625-0.46875-1.21875-0.5625-1.78125-0.28125-1.3125-0.28125-2.71875 0-4.03125 0.09375-0.65625 0.28125-1.21875 0.5625-1.78125 0.28125-0.65625 0.5625-1.21875 1.03125-1.78125 0.28125-0.5625 0.75-1.125 1.21875-1.59375s1.03125-0.84375 1.59375-1.21875l1.59375-0.84375c0.65625-0.28125 1.3125-0.46875 1.96875-0.5625 0.5625-0.09375 1.21875-0.1875 1.78125-0.1875 0.65625 0 1.3125 0.09375 1.96875 0.1875 0.65625 0.09375 1.21875 0.28125 1.78125 0.5625 0.65625 0.28125 1.21875 0.5625 1.78125 0.84375l1.59375 1.21875 1.21875 1.59375c0.375 0.5625 0.65625 1.125 0.84375 1.78125 0.28125 0.5625 0.46875 1.21875 0.5625 1.78125 0.09375 0.75 0.1875 1.40625 0.1875 2.0625z m51.375-51.1875c0 0.65625-0.09375 1.3125-0.1875 1.96875-0.09375 0.65625-0.28125 1.21875-0.5625 1.78125-0.28125 0.65625-0.5625 1.21875-0.84375 1.78125l-2.8125 2.8125c-0.5625 0.28125-1.125 0.5625-1.78125 0.84375-0.5625 0.28125-1.21875 0.46875-1.78125 0.5625-0.65625 0.09375-1.3125 0.1875-1.96875 0.1875s-1.3125-0.09375-1.96875-0.1875c-0.65625-0.1875-1.21875-0.375-1.78125-0.5625-0.65625-0.28125-1.21875-0.5625-1.78125-0.84375-0.5625-0.375-1.03125-0.84375-1.40625-1.40625-0.46875-0.375-0.9375-0.84375-1.21875-1.40625-0.375-0.5625-0.75-1.125-1.03125-1.78125-0.28125-0.5625-0.46875-1.21875-0.5625-1.78125-0.28125-1.3125-0.28125-2.71875 0-4.03125 0.09375-0.65625 0.28125-1.21875 0.5625-1.78125 0.28125-0.65625 0.5625-1.21875 1.03125-1.78125 0.28125-0.5625 0.65625-1.03125 1.21875-1.40625 0.375-0.5625 0.84375-1.03125 1.40625-1.40625 0.5625-0.28125 1.125-0.5625 1.78125-0.84375 0.5625-0.28125 1.21875-0.46875 1.78125-0.5625 0.65625-0.09375 1.3125-0.1875 1.96875-0.1875s1.3125 0.09375 1.96875 0.1875c0.65625 0.09375 1.21875 0.28125 1.78125 0.5625 0.65625 0.28125 1.21875 0.5625 1.78125 0.84375 0.5625 0.375 1.03125 0.84375 1.40625 1.40625 0.5625 0.375 1.03125 0.84375 1.40625 1.40625 0.28125 0.5625 0.5625 1.125 0.84375 1.78125 0.28125 0.5625 0.46875 1.21875 0.5625 1.78125 0.1875 0.75 0.1875 1.40625 0.1875 2.0625z" fill="#FFFFFF" p-id="946"></path><path d="M482.099375 362.855c-22.5-22.78125-44.4375-43.78125-65.8125-63l-0.5625-0.5625c-4.5-4.5-10.59375-7.03125-16.96875-7.03125-6.375-0.09375-12.5625 2.4375-16.96875 7.03125l-13.96875-14.4375 14.15625 13.96875-95.4375 98.625-14.4375-13.96875 14.15625-13.96875 95.625 97.78125-28.59375 28.03125-95.625-97.78125c-0.84375-0.9375-1.59375-1.96875-2.4375-3-0.65625-1.125-1.3125-2.25-1.78125-3.375-0.375-1.21875-0.75-2.53125-1.03125-3.84375-0.28125-1.21875-0.375-2.53125-0.375-3.84375 0-1.3125 0.1875-2.53125 0.375-3.84375 0.28125-1.21875 0.5625-2.4375 1.03125-3.5625 0.5625-1.21875 1.125-2.4375 1.78125-3.5625 0.65625-1.125 1.5-2.0625 2.4375-3l95.625-98.4375 0.375-0.375c11.8125-12 28.125-18.65625 45-18.375 16.875-0.28125 33.09375 6.375 45 18.375l-13.96875 14.15625 13.40625-14.8125c21.84375 19.6875 44.34375 41.25 67.40625 64.59375l-28.40625 28.21875z m14.25-34.03125c1.3125 0 2.71875 0.09375 4.03125 0.375 1.21875 0.28125 2.4375 0.5625 3.5625 1.03125 1.21875 0.5625 2.4375 1.21875 3.5625 1.96875 1.125 0.65625 2.0625 1.5 3 2.4375s1.6875 1.875 2.4375 3c0.75 1.03125 1.40625 2.15625 1.78125 3.375 0.46875 1.21875 0.9375 2.53125 1.21875 3.84375 0.28125 1.3125 0.375 2.625 0.375 4.03125 0 1.3125-0.09375 2.53125-0.375 3.84375-0.28125 1.3125-0.65625 2.625-1.21875 3.84375-0.375 1.21875-1.03125 2.34375-1.78125 3.375-0.65625 1.125-1.5 2.0625-2.4375 3s-1.96875 1.78125-3 2.625c-1.21875 0.65625-2.4375 1.21875-3.5625 1.78125-1.125 0.5625-2.34375 0.9375-3.5625 1.21875-1.3125 0.28125-2.625 0.375-4.03125 0.375-2.625 0-5.15625-0.5625-7.59375-1.59375-1.21875-0.5625-2.4375-1.125-3.5625-1.78125-1.03125-0.75-2.0625-1.6875-3-2.625-0.9375-0.9375-1.6875-1.875-2.4375-3-0.75-1.03125-1.40625-2.15625-1.78125-3.375-0.5625-1.21875-0.9375-2.53125-1.21875-3.84375-0.28125-1.21875-0.375-2.53125-0.375-3.84375 0-1.3125 0.09375-2.71875 0.375-4.03125 0.28125-1.3125 0.65625-2.53125 1.21875-3.84375 0.375-1.21875 1.03125-2.34375 1.78125-3.375 1.40625-2.15625 3.1875-4.03125 5.4375-5.4375 1.125-0.75 2.34375-1.40625 3.5625-1.96875 1.21875-0.375 2.53125-0.75 3.84375-1.03125 1.125-0.1875 2.4375-0.375 3.75-0.375z m-128.625 132.375c1.3125 0 2.53125 0.1875 3.84375 0.375 1.3125 0.09375 2.625 0.46875 3.84375 1.03125 1.21875 0.5625 2.34375 1.125 3.375 1.78125 1.03125 0.75 2.0625 1.6875 3 2.625 0.9375 0.9375 1.78125 1.96875 2.625 3 0.65625 1.125 1.3125 2.25 1.78125 3.375 0.5625 1.21875 0.9375 2.53125 1.21875 3.84375 0.28125 1.3125 0.375 2.625 0.375 4.03125 0 1.3125-0.1875 2.53125-0.375 3.84375-0.28125 1.3125-0.65625 2.625-1.21875 3.84375-0.5625 1.21875-1.125 2.34375-1.78125 3.375-0.75 1.03125-1.6875 2.0625-2.625 3-0.9375 0.9375-1.96875 1.78125-3 2.625-1.125 0.65625-2.25 1.3125-3.375 1.78125-1.21875 0.5625-2.53125 0.9375-3.84375 1.21875-1.21875 0.28125-2.53125 0.375-3.84375 0.375-1.3125 0-2.71875-0.09375-4.03125-0.375-1.3125-0.28125-2.625-0.65625-3.84375-1.21875-1.21875-0.5625-2.34375-1.125-3.375-1.78125-1.03125-0.75-2.0625-1.6875-3-2.625-0.9375-0.9375-1.78125-1.96875-2.625-3-0.65625-1.125-1.3125-2.25-1.78125-3.375-0.5625-1.21875-0.84375-2.53125-1.03125-3.84375-0.28125-1.21875-0.375-2.53125-0.375-3.84375 0-1.3125 0.09375-2.71875 0.375-4.03125 0.09375-1.3125 0.46875-2.625 1.03125-3.84375 0.5625-1.21875 1.125-2.34375 1.78125-3.375 0.75-1.03125 1.6875-2.0625 2.625-3 0.9375-0.9375 1.96875-1.78125 3-2.625 1.125-0.65625 2.25-1.3125 3.375-1.78125 1.21875-0.5625 2.53125-0.84375 3.84375-1.03125 1.3125-0.1875 2.71875-0.375 4.03125-0.375z" fill="#FFFFFF" p-id="947"></path><path d="M649.7946875 664.56875l-33.375 33.84375-14.15625-14.25 33.375-33.84375 14.15625 14.25z m2.8125-6.9375c0 0.5625-0.09375 1.21875-0.1875 1.78125-0.09375 0.65625-0.375 1.3125-0.5625 1.96875-0.1875 0.5625-0.46875 1.125-0.84375 1.59375l-1.21875 1.59375-1.59375 1.21875c-0.5625 0.375-1.125 0.75-1.78125 1.03125-0.5625 0.28125-1.21875 0.46875-1.78125 0.5625-0.65625 0.09375-1.3125 0.1875-1.96875 0.1875-0.5625 0-1.21875-0.09375-1.78125-0.1875-0.65625-0.09375-1.3125-0.375-1.96875-0.5625-0.5625-0.28125-1.125-0.5625-1.78125-1.03125-0.46875-0.375-0.9375-0.75-1.40625-1.21875s-0.84375-1.03125-1.21875-1.59375c-0.375-0.46875-0.75-1.03125-1.03125-1.59375-0.28125-0.65625-0.46875-1.3125-0.5625-1.96875-0.09375-0.5625-0.1875-1.21875-0.1875-1.78125 0-0.65625 0.09375-1.3125 0.1875-1.96875 0.09375-0.65625 0.375-1.3125 0.5625-1.96875 0.28125-0.5625 0.65625-1.125 1.03125-1.59375 0.28125-0.5625 0.75-1.125 1.21875-1.59375s0.9375-0.84375 1.40625-1.21875c0.65625-0.375 1.21875-0.75 1.78125-1.03125 0.65625-0.28125 1.3125-0.375 1.96875-0.375 0.5625-0.09375 1.21875-0.1875 1.78125-0.1875 0.65625 0 1.3125 0.09375 1.96875 0.1875 0.65625 0 1.21875 0.09375 1.78125 0.375 0.65625 0.28125 1.21875 0.5625 1.78125 1.03125l1.59375 1.21875 1.21875 1.59375c0.375 0.46875 0.65625 1.03125 0.84375 1.59375 0.28125 0.65625 0.46875 1.3125 0.5625 1.96875 0.09375 0.5625 0.1875 1.21875 0.1875 1.96875z m-33.1875 33.5625c0 0.65625-0.09375 1.3125-0.1875 1.96875-0.09375 0.65625-0.375 1.3125-0.5625 1.96875-0.28125 0.5625-0.65625 1.125-1.03125 1.59375l-1.21875 1.59375-1.59375 1.21875c-0.46875 0.375-1.03125 0.75-1.59375 1.03125-0.65625 0.28125-1.3125 0.375-1.96875 0.375-0.5625 0.09375-1.21875 0.1875-1.78125 0.1875-0.65625 0-1.3125-0.09375-1.96875-0.1875-0.65625 0-1.40625-0.1875-1.96875-0.375-0.5625-0.28125-1.125-0.65625-1.59375-1.03125l-1.59375-1.21875-1.21875-1.59375c-0.375-0.46875-0.75-1.03125-1.03125-1.59375-0.09375-0.65625-0.28125-1.3125-0.375-1.96875-0.09375-0.65625-0.1875-1.3125-0.1875-1.96875 0-0.5625 0.09375-1.21875 0.1875-1.78125 0.09375-0.65625 0.28125-1.3125 0.375-1.96875 0.28125-0.5625 0.65625-1.125 1.03125-1.59375l1.21875-1.59375 1.59375-1.21875c0.46875-0.375 1.03125-0.75 1.59375-1.03125 0.65625-0.28125 1.3125-0.46875 1.96875-0.5625 0.65625-0.09375 1.3125-0.1875 1.96875-0.1875 0.5625 0 1.21875 0.09375 1.78125 0.1875 0.65625 0.09375 1.3125 0.375 1.96875 0.5625 0.5625 0.28125 1.125 0.65625 1.59375 1.03125l1.59375 1.21875 1.21875 1.59375c0.375 0.46875 0.75 1.03125 1.03125 1.59375 0.28125 0.65625 0.46875 1.3125 0.5625 1.96875 0.09375 0.5625 0.1875 1.21875 0.1875 1.78125zM629.6384375 626.0375l-51.375 51.1875-14.0625-14.25 51.375-51.1875 14.0625 14.25z m3-7.03125c0 0.5625-0.09375 1.21875-0.1875 1.78125-0.09375 0.65625-0.375 1.3125-0.5625 1.96875-0.28125 0.5625-0.65625 1.125-1.03125 1.59375-0.28125 0.5625-0.75 1.125-1.21875 1.59375s-0.9375 0.84375-1.40625 1.21875c-0.5625 0.375-1.125 0.75-1.78125 1.03125-0.5625 0.28125-1.21875 0.46875-1.78125 0.5625-1.3125 0.28125-2.71875 0.28125-4.03125 0-0.65625-0.09375-1.21875-0.28125-1.78125-0.5625-0.65625-0.28125-1.21875-0.5625-1.78125-1.03125-0.46875-0.375-0.9375-0.75-1.40625-1.21875s-0.9375-1.03125-1.40625-1.59375l-0.84375-1.59375c-0.28125-0.65625-0.46875-1.3125-0.5625-1.96875-0.09375-0.5625-0.1875-1.21875-0.1875-1.78125 0-0.65625 0.09375-1.3125 0.1875-1.96875 0.09375-0.65625 0.375-1.3125 0.5625-1.96875l0.84375-1.59375c0.46875-0.5625 0.84375-1.125 1.40625-1.59375 0.46875-0.46875 0.9375-0.84375 1.40625-1.21875 0.5625-0.375 1.125-0.75 1.78125-1.03125 0.5625-0.28125 1.21875-0.375 1.78125-0.375 1.3125-0.28125 2.71875-0.28125 4.03125 0 0.65625 0 1.21875 0.1875 1.78125 0.375 0.65625 0.28125 1.21875 0.5625 1.78125 1.03125 0.46875 0.375 0.9375 0.75 1.40625 1.21875s0.84375 1.03125 1.21875 1.59375c0.375 0.46875 0.75 1.03125 1.03125 1.59375 0.28125 0.65625 0.46875 1.3125 0.5625 1.96875 0.09375 0.65625 0.1875 1.3125 0.1875 1.96875z m-51.46875 51c0 0.65625-0.09375 1.3125-0.1875 1.96875-0.09375 0.65625-0.28125 1.21875-0.5625 1.78125-0.28125 0.65625-0.5625 1.21875-0.84375 1.78125-0.46875 0.5625-0.84375 1.125-1.40625 1.59375-0.46875 0.46875-0.9375 0.84375-1.40625 1.21875-0.5625 0.375-1.125 0.75-1.78125 1.03125l-1.78125 0.375c-1.3125 0.28125-2.71875 0.28125-4.03125 0l-1.78125-0.375c-0.65625-0.28125-1.21875-0.5625-1.78125-1.03125-0.46875-0.375-0.9375-0.75-1.40625-1.21875s-0.84375-1.03125-1.21875-1.59375c-0.375-0.5625-0.75-1.125-1.03125-1.78125-0.28125-0.5625-0.46875-1.21875-0.5625-1.78125-0.09375-0.65625-0.1875-1.3125-0.1875-1.96875 0-0.5625 0.09375-1.21875 0.1875-1.78125 0.09375-0.65625 0.375-1.3125 0.5625-1.96875 0.28125-0.5625 0.65625-1.125 1.03125-1.59375 0.28125-0.65625 0.65625-1.21875 1.21875-1.59375 0.46875-0.46875 0.9375-0.84375 1.40625-1.21875 0.5625-0.375 1.125-0.75 1.78125-1.03125 0.5625-0.28125 1.21875-0.46875 1.78125-0.5625 1.3125-0.28125 2.71875-0.28125 4.03125 0 0.65625 0.09375 1.21875 0.28125 1.78125 0.5625 0.65625 0.28125 1.21875 0.5625 1.78125 1.03125 0.46875 0.375 0.9375 0.75 1.40625 1.21875 0.5625 0.46875 1.03125 0.9375 1.40625 1.59375l0.84375 1.59375c0.28125 0.65625 0.46875 1.3125 0.5625 1.96875 0.1875 0.5625 0.28125 1.125 0.1875 1.78125z" fill="#FFFFFF" p-id="948"></path><path d="M690.3884375 510.63125c23.0625 23.4375 44.34375 46.21875 63.84375 68.4375l-15 13.21875 14.625-13.59375c24 25.3125 24 64.96875 0 90.1875-0.1875 0.1875-0.28125 0.375-0.375 0.5625l-97.3125 96.75c-0.9375 0.9375-2.0625 1.78125-3.1875 2.4375-1.125 0.65625-2.25 1.3125-3.375 1.78125-1.21875 0.5625-2.53125 0.9375-3.84375 1.21875-1.21875 0.28125-2.53125 0.375-3.84375 0.375-1.3125 0-2.71875-0.09375-4.03125-0.375-1.21875-0.28125-2.4375-0.65625-3.5625-1.21875-1.21875-0.46875-2.4375-1.125-3.5625-1.78125-1.03125-0.75-2.0625-1.6875-3-2.625l-96.375-96.84375 28.40625-28.21875 96.375 96.84375-14.15625 14.25-14.15625-14.15625 97.3125-96.84375 13.96875 14.15625-14.4375-13.78125c9.28125-9.9375 9.28125-25.40625 0-35.4375-0.28125-0.09375-0.46875-0.375-0.5625-0.5625-18.9375-21.5625-39.65625-43.78125-62.15625-66.5625l28.40625-28.21875z m5.8125 14.15625c0 2.625-0.5625 5.15625-1.59375 7.59375-0.375 1.21875-1.03125 2.34375-1.78125 3.375-0.65625 1.125-1.5 2.0625-2.4375 3s-1.96875 1.78125-3 2.625c-1.21875 0.65625-2.4375 1.21875-3.5625 1.78125-1.21875 0.5625-2.53125 0.9375-3.84375 1.21875-1.21875 0.28125-2.53125 0.375-3.84375 0.375-1.3125 0-2.71875-0.09375-4.03125-0.375-1.21875-0.28125-2.4375-0.65625-3.5625-1.21875-1.21875-0.5625-2.4375-1.125-3.5625-1.78125-1.03125-0.75-2.0625-1.6875-3-2.625-0.9375-0.9375-1.6875-1.875-2.4375-3-0.75-1.03125-1.40625-2.15625-1.78125-3.375-1.03125-2.4375-1.59375-4.96875-1.59375-7.59375 0-1.3125 0.09375-2.71875 0.375-4.03125 0.28125-1.3125 0.65625-2.625 1.21875-3.84375 0.375-1.21875 1.03125-2.34375 1.78125-3.375 0.65625-1.125 1.5-2.0625 2.4375-3s1.875-1.6875 3-2.4375c1.125-0.75 2.34375-1.40625 3.5625-1.96875 1.125-0.5625 2.34375-0.84375 3.5625-1.03125 1.3125-0.28125 2.625-0.375 4.03125-0.375 1.3125 0 2.53125 0.09375 3.84375 0.375 1.3125 0.09375 2.625 0.46875 3.84375 1.03125 1.21875 0.5625 2.4375 1.21875 3.5625 1.96875 1.125 0.65625 2.0625 1.5 3 2.4375s1.6875 1.875 2.4375 3c0.75 1.03125 1.40625 2.15625 1.78125 3.375 0.5625 1.21875 0.9375 2.53125 1.21875 3.84375 0.28125 1.40625 0.375 2.71875 0.375 4.03125z m-130.59375 130.40625c0 2.625-0.5625 5.15625-1.59375 7.59375-0.375 1.21875-1.03125 2.34375-1.78125 3.375-0.65625 1.125-1.5 2.0625-2.4375 3s-1.96875 1.78125-3 2.625c-1.21875 0.65625-2.4375 1.21875-3.5625 1.78125-1.125 0.5625-2.34375 0.9375-3.5625 1.21875-2.625 0.5625-5.34375 0.5625-7.96875 0-1.21875-0.28125-2.4375-0.65625-3.5625-1.21875-1.21875-0.5625-2.4375-1.125-3.5625-1.78125-1.03125-0.75-2.0625-1.6875-3-2.625-0.9375-0.9375-1.6875-1.875-2.4375-3-0.75-1.03125-1.40625-2.15625-1.78125-3.375-0.5625-1.21875-0.9375-2.53125-1.21875-3.84375-0.28125-1.21875-0.375-2.53125-0.375-3.84375 0-1.3125 0.09375-2.71875 0.375-4.03125 0.28125-1.3125 0.65625-2.625 1.21875-3.84375 0.375-1.21875 1.03125-2.34375 1.78125-3.375 0.65625-1.125 1.5-2.0625 2.4375-3s1.875-1.6875 3-2.4375c1.125-0.75 2.34375-1.40625 3.5625-1.96875 1.125-0.5625 2.34375-0.84375 3.5625-1.03125 2.625-0.5625 5.34375-0.5625 7.96875 0 1.21875 0.1875 2.4375 0.46875 3.5625 1.03125 1.21875 0.5625 2.4375 1.21875 3.5625 1.96875 1.125 0.65625 2.0625 1.5 3 2.4375s1.6875 1.875 2.4375 3c0.75 1.03125 1.40625 2.15625 1.78125 3.375 0.5625 1.21875 0.9375 2.53125 1.21875 3.84375 0.28125 1.40625 0.375 2.8125 0.375 4.125z" fill="#FFFFFF" p-id="949"></path></svg>