<?xml version="1.0" standalone="no"?><!DOCTYPE svg PUBLIC "-//W3C//DTD SVG 1.1//EN" "http://www.w3.org/Graphics/SVG/1.1/DTD/svg11.dtd"><svg t="1702533445379" class="icon" viewBox="0 0 1024 1024" version="1.1" xmlns="http://www.w3.org/2000/svg" p-id="9087" xmlns:xlink="http://www.w3.org/1999/xlink" width="200" height="200"><path d="M511.99776 0a511.99776 511.99776 0 1 1-339.390515 895.356083 30.271868 30.271868 0 0 0 27.711879-8.255964L484.60588 602.877362V497.277824l-6.143973-0.959995-6.207973 0.319998a30.079868 30.079868 0 0 0-16.767927 8.511963L136.959401 823.676396l-3.903983 4.799979a30.271868 30.271868 0 0 0-4.351981 22.8479A511.99776 511.99776 0 0 1 511.99776 0z m89.08761 253.310892L554.237575 376.446353l-127.99944 31.231863 102.655551 82.559639-9.791957 131.391425 110.207518-72.063684 121.919466 49.919781-34.559848-127.103444 85.247627-100.47956-131.583425-6.527972-69.247697-111.99951zM355.006447 127.99944l-36.031843 66.623709-75.26367 8.127964 52.223771 54.84776-15.551932 74.175675 68.287702-32.767856 65.727712 37.759835-10.047956-75.135672 56.191754-50.815777L385.918312 197.119138 355.006447 127.99944zM825.596388 199.935125l-14.207938 26.367885-29.823869 3.199986 20.671909 21.695905-6.143973 29.311872 27.007882-12.927944 25.983886 14.911935-3.967982-29.69587 22.207902-20.095912-29.439871-5.439976-12.287946-27.327881z" fill="#2c2c2c" p-id="9088"></path></svg>