<?xml version="1.0" standalone="no"?><!DOCTYPE svg PUBLIC "-//W3C//DTD SVG 1.1//EN" "http://www.w3.org/Graphics/SVG/1.1/DTD/svg11.dtd"><svg t="1681528852884" class="icon" viewBox="0 0 1024 1024" version="1.1" xmlns="http://www.w3.org/2000/svg" p-id="876" xmlns:xlink="http://www.w3.org/1999/xlink" width="200" height="200"><path d="M492.8 496c9.6 9.6 25.6 9.6 35.2 0s9.6-25.6 0-35.2-25.6-9.6-35.2 0-9.6 25.6 0 35.2zM409.6 496c9.6 9.6 25.6 9.6 35.2 0 9.6-9.6 9.6-25.6 0-35.2-9.6-9.6-25.6-9.6-35.2 0-9.6 9.6-9.6 25.6 0 35.2zM576 496c9.6 9.6 25.6 9.6 35.2 0 9.6-9.6 9.6-25.6 0-35.2-9.6-9.6-25.6-9.6-35.2 0-9.6 9.6-9.6 25.6 0 35.2z" fill="#00a0e9" p-id="877"></path><path d="M512 64C265.6 64 64 265.6 64 512s201.6 448 448 448 448-201.6 448-448S758.4 64 512 64z m44.8 633.6l-112 35.2c-6.4 3.2-16-6.4-9.6-12.8l12.8-25.6c-115.2-22.4-201.6-102.4-201.6-201.6 0-115.2 118.4-208 265.6-208s265.6 92.8 265.6 208c0 102.4-96 188.8-220.8 204.8z" fill="#00a0e9" p-id="878"></path></svg>