<?xml version="1.0" standalone="no"?><!DOCTYPE svg PUBLIC "-//W3C//DTD SVG 1.1//EN" "http://www.w3.org/Graphics/SVG/1.1/DTD/svg11.dtd"><svg t="1681528857896" class="icon" viewBox="0 0 1024 1024" version="1.1" xmlns="http://www.w3.org/2000/svg" p-id="1026" xmlns:xlink="http://www.w3.org/1999/xlink" width="200" height="200"><path d="M512 63.7578125c247.58789063 0 448.2421875 200.65429688 448.2421875 448.2421875s-200.65429688 448.2421875-448.2421875 448.2421875S63.7578125 759.58789063 63.7578125 512 264.41210937 63.7578125 512 63.7578125z m140.44921875 597.91992188c-3.515625 3.42773438-3.515625 8.96484375-0.17578125 12.39257812 0.3515625 0.43945313 0.79101563 0.79101563 1.31835938 1.0546875 19.42382813 17.9296875 31.9921875 42.09960938 35.5078125 68.29101563 5.44921875 19.6875 26.10351563 31.37695313 46.0546875 25.92773437 19.77539063-5.18554688 31.55273438-25.40039063 26.3671875-45.08789062 0-0.08789063-0.08789063-0.17578125-0.08789063-0.3515625-4.13085938-14.765625-16.96289063-25.57617188-32.25585938-27.0703125-24.609375-4.48242188-47.02148438-16.875-63.984375-35.24414063-3.60351563-3.33984375-9.22851563-3.33984375-12.74414062 0.08789063z m-198.36914063-424.51171875c-67.1484375 7.29492188-128.14453125 35.68359375-171.91406249 79.98046875-17.05078125 17.05078125-31.20117188 36.73828125-42.01171876 58.27148437-33.13476563 65.83007813-27.59765625 144.4921875 14.50195313 204.9609375 11.86523438 17.75390625 31.46484375 39.90234375 49.30664063 55.63476563l-8.0859375 62.66601562-0.87890625 2.63671875c-0.26367188 0.79101563-0.26367188 1.66992188-0.3515625 2.4609375l-0.17578125 2.02148438 0.17578125 2.02148437c1.0546875 11.16210938 10.98632813 19.3359375 22.1484375 18.36914063 3.07617188-0.26367188 5.9765625-1.23046875 8.61328125-2.72460938h0.3515625l1.23046875-0.87890625 19.3359375-9.4921875 57.56835937-28.56445312c27.33398438 7.734375 55.72265625 11.6015625 84.19921875 11.42578125 35.15625 0.08789063 70.13671875-5.88867188 103.27148438-17.75390625-16.5234375-5.2734375-27.15820313-21.35742188-25.48828126-38.671875-34.27734375 10.8984375-70.48828125 14.4140625-106.17187499 10.45898437l-5.71289063-0.79101562c-12.91992188-1.66992188-25.6640625-4.30664063-38.14453125-7.82226563-6.85546875-2.109375-14.15039063-1.31835938-20.47851562 2.109375l-1.58203125 0.79101563-47.37304688 27.50976562-2.02148437 1.23046875c-1.14257813 0.61523438-1.66992188 0.87890625-2.28515625 0.87890625-1.7578125-0.08789063-3.07617188-1.58203125-2.98828125-3.33984375l1.7578125-7.20703125 2.109375-7.82226562 3.42773437-12.91992188 3.95507813-14.4140625c2.63671875-8.0859375-0.26367188-16.875-7.20703125-21.796875-18.54492188-13.62304688-34.71679688-30.234375-47.8125-49.21875-33.31054688-47.63671875-37.79296875-109.6875-11.68945313-161.54296875 8.70117188-17.13867188 20.12695313-32.87109375 33.75-46.49414062 35.94726563-36.5625 86.39648438-59.85351563 142.29492188-65.83007813 19.3359375-2.109375 38.84765625-2.109375 58.18359374 0 55.546875 6.328125 105.8203125 29.8828125 141.59179688 66.26953125 13.53515625 13.79882813 24.78515625 29.53125 33.31054688 46.7578125 10.98632813 21.796875 16.69921875 45.96679688 16.78710937 70.40039063 0 2.54882813-0.26367188 5.09765625-0.3515625 7.55859375 14.765625-8.96484375 33.75-6.76757813 46.0546875 5.36132812l1.66992188 2.02148438c2.90039063-36.2109375-4.21875-72.50976563-20.47851563-105.02929688-10.63476563-21.53320313-24.69726563-41.1328125-41.57226563-58.27148437-46.14257813-45.703125-106.69921875-74.09179688-171.29882812-80.59570313-23.203125-2.98828125-46.49414063-3.07617188-69.52148438-0.61523437z m367.55859376 356.30859375c-6.328125 1.66992188-12.12890625 5.00976563-16.87500001 9.66796875h-0.08789062c-6.06445313 5.9765625-9.84375 13.79882813-10.72265625 22.23632812-4.5703125 24.43359375-17.13867188 46.66992188-35.59570313 63.28125-3.515625 3.33984375-3.60351563 8.87695313-0.26367187 12.39257813l0.08789062 0.08789062c3.515625 3.515625 9.22851563 3.60351563 12.83203125 0.08789063 0.43945313-0.43945313 0.79101563-0.79101563 1.0546875-1.31835938 18.36914063-19.24804688 42.80273438-31.640625 69.16992188-34.98046875 20.0390625-5.36132813 31.81640625-25.6640625 26.45507813-45.3515625-5.44921875-19.77539063-26.015625-31.46484375-46.05468751-26.10351562z m-140.97656251-36.9140625l-0.61523437 0.61523437c-18.36914063 19.95117188-43.2421875 32.78320313-70.22460938 36.2109375-19.86328125 5.18554688-31.81640625 25.22460938-26.54296874 44.91210938 1.66992188 6.41601563 5.18554688 12.3046875 9.93164062 16.96289062 14.67773438 14.4140625 38.40820313 14.4140625 53.0859375-0.08789062 5.9765625-5.9765625 9.75585938-13.79882813 10.72265625-22.1484375 4.65820313-24.43359375 17.2265625-46.66992188 35.77148438-63.28125 3.60351563-3.25195313 3.95507813-8.7890625 0.79101562-12.39257813l-0.08789062-0.08789062c-3.515625-3.69140625-9.140625-3.95507813-12.83203125-0.703125z m34.80468751-67.32421875c-6.24023438 1.66992188-11.953125 5.00976563-16.43554688 9.4921875-14.4140625 14.23828125-14.58984375 37.44140625-0.3515625 51.85546875l0.43945313 0.43945312c6.06445313 5.9765625 13.97460938 9.66796875 22.41210937 10.63476563 24.609375 4.48242188 47.109375 16.78710938 64.07226563 35.06835937 3.515625 3.515625 9.140625 3.515625 12.65624999 0.08789063 3.515625-3.33984375 3.60351563-8.87695313 0.26367188-12.39257813-0.43945313-0.43945313-0.96679688-0.87890625-1.49414063-1.23046875-19.42382813-17.9296875-31.9921875-42.01171875-35.5078125-68.203125-5.36132813-19.6875-26.015625-31.20117188-46.0546875-25.75195312z" fill="#00a0e9" p-id="1027"></path></svg>